Coordinates
version=1
nRows=9
nColumns=24
inDegrees=yes

Units are S.I. units (second, meters, Newtons, ...)
Angles are in degrees.

endheader
time	pelvis_tilt	pelvis_list	pelvis_rotation	pelvis_tx	pelvis_ty	pelvis_tz	hip_flexion_r	hip_adduction_r	hip_rotation_r	knee_angle_r	ankle_angle_r	subtalar_angle_r	mtp_angle_r	hip_flexion_l	hip_adduction_l	hip_rotation_l	knee_angle_l	ankle_angle_l	subtalar_angle_l	mtp_angle_l	lumbar_extension	lumbar_bending	lumbar_rotation
      1.30500000	      8.21709943	     -8.09208449	    -13.92756965	     -0.58310464	      0.97447731	      0.03982409	    -24.69819309	      2.22682288	     -7.54188158	    -13.96176417	     11.77172937	     21.21563097	      4.09224849	     17.29028088	     -9.77063698	    -37.44016548	     -8.04424152	     -4.52245838	     -2.76172728	     14.20871736	    -20.72102432	     16.49484734	     55.04819854
      1.31000000	      8.22151622	     -8.11161172	    -14.14836410	     -0.57626336	      0.97344685	      0.03984331	    -25.01689826	      2.00547718	     -7.43079572	    -14.15386869	     11.78896365	     21.27050530	      4.17891404	     17.26778887	     -9.81203413	    -36.88599276	     -8.60702352	     -4.72576765	     -3.55754193	     14.17040433	    -20.78929532	     16.36203341	     55.22923678
      1.31500000	      8.18365185	     -8.10660970	    -14.27823824	     -0.56934919	      0.97238168	      0.03971301	    -25.28972230	      1.80643267	     -7.42571573	    -14.34118483	     11.73094181	     21.29411112	      4.61450690	     17.32266612	     -9.81555891	    -36.16546858	     -9.20515601	     -4.99454602	     -4.46875644	     14.28568748	    -20.76713495	     16.24337178	     55.26849418
      1.32000000	      8.16174665	     -8.06752677	    -14.47356072	     -0.56245349	      0.97145107	      0.03964376	    -25.54376640	      1.54101897	     -7.34906372	    -14.56541631	     11.64597791	     21.25440290	      4.90779739	     17.34249888	     -9.80539015	    -35.58116566	     -9.80691980	     -5.35883412	     -5.41640145	     14.31515911	    -20.77725408	     16.06070802	     55.38405106
      1.32500000	      8.15346407	     -8.02790099	    -14.66169179	     -0.55556073	      0.97063492	      0.03953422	    -25.79188495	      1.26818863	     -7.28265787	    -14.79305642	     11.22304465	     21.20447421	      7.08513914	     17.34756231	     -9.80052656	    -35.02025129	    -10.41747074	     -5.87696743	     -6.39522074	     15.02865032	    -20.80644758	     15.87674261	     55.49800342
      1.33000000	      8.14126113	     -7.97142383	    -14.84997349	     -0.54867495	      0.96992509	      0.03943059	    -26.01605233	      0.98430920	     -7.15522621	    -15.06168181	     11.09839076	     21.10805604	      7.16163121	     17.36198325	     -9.79293525	    -34.48028071	    -11.05561717	     -6.35999560	     -7.33437191	     14.90010489	    -20.83177613	     15.67230407	     55.64954036
      1.33500000	      8.10711829	     -7.88911414	    -14.96162688	     -0.54174041	      0.96925188	      0.03916932	    -26.19329310	      0.70434569	     -7.19241964	    -15.34686709	     10.63067812	     21.04289293	      8.87394010	     17.43480365	     -9.75002060	    -33.85802349	    -11.72707314	     -6.90556279	     -8.32878333	     14.97652783	    -20.80484106	     15.47695674	     55.71059853
      1.34000000	      8.09355173	     -7.78862846	    -15.13857275	     -0.53483752	      0.96875576	      0.03901466	    -26.35844305	      0.38032721	     -7.05785999	    -15.68543140	     10.45059044	     20.86079886	      8.99291248	     17.47243285	     -9.72102295	    -33.39674149	    -12.42486763	     -7.42808315	     -9.28415975	     14.86504224	    -20.81174402	     15.22282764	     55.78954723
      1.34500000	      8.07208825	     -7.65533854	    -15.26134286	     -0.52786916	      0.96832681	      0.03875432	    -26.50494081	      0.04227634	     -7.02260167	    -15.98958864	      9.82736629	     20.70326746	     11.34107071	     17.53889065	     -9.65112687	    -32.89250029	    -13.14164274	     -7.97536752	    -10.23887277	     15.06609336	    -20.78576931	     14.96030545	     55.84948659
